<svg width="605" height="560" viewBox="0 0 605 560" fill="none" xmlns="http://www.w3.org/2000/svg">
<g clip-path="url(#clip0)">
<rect width="605" height="560" fill="white"/>
<circle cx="305" cy="255" r="223" fill="white" stroke="black" stroke-width="4"/>
<rect x="75.334" y="409.328" width="583.632" height="308.717" transform="rotate(-20.0967 75.334 409.328)" fill="white"/>
<g style="mix-blend-mode:darken">
<circle cx="305" cy="255" r="223" fill="white"/>
<circle cx="305" cy="255" r="223" stroke="black" stroke-width="4" stroke-dasharray="10 10"/>
</g>
<rect x="134.242" y="457.098" width="449.176" height="189.625" rx="72.0451" transform="rotate(-21.2597 134.242 457.098)" fill="white"/>
<path d="M325.997 235.191C326.311 237.974 325.685 240.459 324.121 242.648C322.755 244.815 321.035 246.518 318.961 247.758C313.39 244.764 306.948 242.068 299.633 239.672C292.319 237.277 283.097 236.706 271.968 237.96C262.825 238.991 254.558 241.533 247.166 245.586C239.773 249.64 233.542 255.072 228.473 261.883C223.404 268.693 219.707 276.959 217.381 286.681C215.254 296.38 214.874 307.292 216.24 319.415C217.629 331.737 220.429 342.29 224.639 351.073C228.85 359.857 234.084 367.016 240.344 372.549C246.801 378.061 254.184 381.958 262.493 384.242C270.778 386.327 279.79 386.821 289.529 385.723C299.863 384.558 308.65 382.159 315.888 378.525C323.303 374.671 329.37 370.465 334.089 365.907C336.167 366.478 338.223 367.756 340.258 369.741C342.27 371.526 343.433 373.811 343.747 376.593C344.218 380.766 342.258 384.811 337.869 388.728C333.657 392.423 327.71 395.911 320.029 399.192C312.371 402.671 302.38 405.106 290.058 406.495C277.538 407.906 265.687 407.229 254.507 404.464C243.327 401.699 233.326 396.889 224.502 390.034C215.855 382.958 208.585 373.815 202.693 362.604C196.8 351.394 192.969 337.938 191.199 322.237C189.429 306.537 190.169 292.566 193.418 280.325C196.844 267.863 202.084 257.209 209.137 248.363C216.191 239.518 224.76 232.514 234.846 227.352C245.13 222.167 256.135 218.914 267.86 217.592C276.009 216.674 283.54 216.529 290.454 217.159C297.567 217.766 303.642 218.993 308.681 220.84C313.896 222.467 317.963 224.625 320.883 227.315C323.979 229.783 325.684 232.409 325.997 235.191Z" fill="#050505"/>
<path d="M204.453 465.051C206.821 465.702 208.753 465.662 210.246 464.931C211.785 464.175 212.787 462.948 213.253 461.251C213.661 459.766 213.514 458.433 212.812 457.252C212.145 456.08 210.887 454.916 209.037 453.762L204.801 451.115C202.723 449.822 201.209 448.341 200.261 446.674C199.347 445.016 199.196 443.073 199.808 440.846C200.177 439.502 200.755 438.368 201.541 437.443C202.373 436.493 203.368 435.778 204.527 435.298C205.685 434.817 206.972 434.562 208.387 434.533C209.847 434.478 211.408 434.678 213.07 435.135C214.484 435.523 215.758 436.006 216.892 436.584C218.072 437.136 219.045 437.746 219.812 438.413C220.625 439.054 221.211 439.691 221.57 440.322C221.929 440.953 222.035 441.533 221.89 442.064C221.754 442.559 221.513 442.949 221.169 443.234C220.824 443.52 220.428 443.715 219.981 443.821C219.256 442.861 218.224 441.912 216.884 440.974C215.58 440.045 214.027 439.333 212.224 438.838C210.138 438.265 208.372 438.255 206.927 438.809C205.518 439.372 204.594 440.449 204.157 442.041C203.817 443.278 203.965 444.402 204.6 445.413C205.234 446.424 206.464 447.484 208.289 448.594L211.262 450.437C213.832 452.018 215.708 453.769 216.891 455.691C218.119 457.588 218.374 459.844 217.655 462.461C216.888 465.254 215.259 467.24 212.767 468.419C210.276 469.597 207.174 469.677 203.462 468.657C201.835 468.21 200.389 467.661 199.123 467.009C197.893 466.367 196.863 465.685 196.035 464.963C195.242 464.251 194.653 463.557 194.269 462.881C193.929 462.179 193.832 461.563 193.978 461.033C194.143 460.431 194.456 459.985 194.916 459.693C195.421 459.376 195.946 459.197 196.49 459.156C196.772 459.652 197.137 460.189 197.586 460.769C198.045 461.313 198.597 461.864 199.243 462.422C199.898 462.944 200.656 463.437 201.517 463.902C202.378 464.367 203.356 464.75 204.453 465.051Z" fill="black"/>
<path d="M249.398 468.83C249.077 470.858 248.498 472.642 247.66 474.18C246.823 475.718 245.77 476.98 244.5 477.967C243.266 478.96 241.84 479.644 240.222 480.019C238.603 480.394 236.852 480.432 234.969 480.134C233.086 479.836 231.432 479.259 230.009 478.403C228.585 477.547 227.422 476.453 226.518 475.122C225.615 473.791 225.003 472.265 224.681 470.544C224.36 468.822 224.359 466.948 224.68 464.92C225.001 462.892 225.58 461.108 226.417 459.57C227.291 458.038 228.363 456.778 229.633 455.791C230.902 454.804 232.347 454.123 233.965 453.748C235.584 453.373 237.316 453.332 239.163 453.624C241.01 453.916 242.646 454.491 244.069 455.347C245.493 456.203 246.638 457.294 247.505 458.619C248.408 459.95 249.021 461.476 249.342 463.197C249.7 464.925 249.719 466.802 249.398 468.83ZM238.596 457.21C236.133 456.82 234.061 457.364 232.379 458.843C230.698 460.322 229.616 462.582 229.135 465.624C228.648 468.703 228.958 471.202 230.065 473.122C231.213 475.011 233.037 476.154 235.536 476.549C238.035 476.944 240.107 476.4 241.753 474.915C243.398 473.431 244.462 471.168 244.943 468.126C245.424 465.083 245.094 462.599 243.95 460.674C242.844 458.754 241.059 457.599 238.596 457.21Z" fill="black"/>
<path d="M277.637 472.178C277.978 470.153 277.649 468.573 276.651 467.438C275.688 466.309 274.249 465.584 272.333 465.261C270.886 465.017 269.572 464.982 268.39 465.155C267.209 465.327 266.18 465.582 265.306 465.918L261.889 486.202C261.696 486.244 261.413 486.271 261.039 486.282C260.659 486.33 260.252 486.317 259.818 486.244C258.264 485.982 257.596 485.2 257.815 483.898L260.93 465.404C261.058 464.645 261.306 464.054 261.675 463.633C262.086 463.182 262.71 462.785 263.549 462.443C264.586 462.022 265.922 461.708 267.556 461.5C269.19 461.292 270.983 461.352 272.935 461.681C276.226 462.236 278.686 463.412 280.317 465.211C281.983 467.017 282.549 469.51 282.013 472.692L279.244 489.125C279.052 489.167 278.75 489.191 278.34 489.196C277.96 489.244 277.572 489.234 277.174 489.167C275.619 488.905 274.951 488.123 275.171 486.822L277.637 472.178Z" fill="black"/>
<path d="M298.4 490.318C298.212 490.378 297.933 490.432 297.562 490.48C297.189 490.564 296.782 490.59 296.344 490.559C294.771 490.449 294.031 489.735 294.123 488.418L295.778 464.881C295.966 464.821 296.246 464.767 296.617 464.72C297.027 464.638 297.451 464.613 297.89 464.644C299.426 464.752 300.147 465.483 300.052 466.836L298.4 490.318ZM295.691 456.715C295.745 455.947 296.046 455.325 296.594 454.849C297.181 454.339 297.896 454.113 298.737 454.172C299.578 454.232 300.235 454.554 300.709 455.138C301.185 455.686 301.396 456.344 301.342 457.112C301.288 457.881 300.986 458.521 300.435 459.034C299.887 459.51 299.192 459.718 298.351 459.659C297.51 459.6 296.833 459.295 296.32 458.744C295.847 458.16 295.637 457.483 295.691 456.715Z" fill="black"/>
<path d="M323.211 486.534C324.747 486.421 325.998 486.182 326.963 485.818C327.963 485.413 328.672 485.049 329.089 484.724L328.506 476.771L321.756 477.982C319.868 478.305 318.493 478.847 317.629 479.609C316.763 480.334 316.379 481.355 316.475 482.671C316.577 484.061 317.186 485.101 318.303 485.791C319.417 486.444 321.053 486.692 323.211 486.534ZM321.455 463.335C324.636 463.102 327.211 463.63 329.181 464.919C331.151 466.209 332.248 468.389 332.473 471.461L333.427 484.461C333.486 485.266 333.367 485.899 333.07 486.362C332.807 486.786 332.378 487.204 331.783 487.615C330.943 488.191 329.805 488.716 328.369 489.189C326.972 489.696 325.341 490.017 323.476 490.154C320.039 490.406 317.32 489.925 315.319 488.712C313.355 487.496 312.279 485.608 312.091 483.048C311.914 480.634 312.568 478.766 314.052 477.444C315.533 476.086 317.689 475.156 320.52 474.654L328.253 473.315L328.14 471.779C328.006 469.95 327.359 468.656 326.201 467.895C325.042 467.135 323.53 466.823 321.665 466.96C320.129 467.072 318.701 467.397 317.38 467.936C316.059 468.474 314.889 469.056 313.868 469.682C313.557 469.447 313.261 469.175 312.981 468.865C312.738 468.552 312.601 468.194 312.572 467.792C312.534 467.28 312.631 466.85 312.863 466.502C313.095 466.154 313.474 465.814 314.001 465.481C314.951 464.897 316.057 464.43 317.318 464.08C318.576 463.693 319.955 463.445 321.455 463.335Z" fill="black"/>
<path d="M402.458 439.108C402.682 439.57 402.726 440.038 402.589 440.511C402.485 440.969 402.291 441.369 402.008 441.71C400.863 441.532 399.584 441.459 398.174 441.491C396.763 441.523 395.134 441.987 393.286 442.883C391.768 443.619 390.494 444.563 389.464 445.715C388.433 446.866 387.687 448.186 387.226 449.672C386.765 451.159 386.631 452.814 386.822 454.636C387.046 456.443 387.646 458.352 388.621 460.365C389.613 462.411 390.741 464.064 392.005 465.326C393.269 466.588 394.611 467.506 396.03 468.081C397.483 468.639 398.997 468.863 400.573 468.751C402.133 468.606 403.721 468.141 405.337 467.357C407.053 466.525 408.426 465.574 409.455 464.505C410.502 463.386 411.294 462.289 411.832 461.213C412.226 461.185 412.66 461.28 413.132 461.499C413.589 461.685 413.93 462.009 414.154 462.471C414.49 463.164 414.398 463.982 413.878 464.927C413.375 465.823 412.56 466.789 411.432 467.825C410.32 468.894 408.742 469.924 406.696 470.916C404.618 471.924 402.528 472.53 400.426 472.734C398.325 472.938 396.302 472.717 394.358 472.07C392.432 471.374 390.617 470.237 388.914 468.658C387.212 467.08 385.728 464.987 384.464 462.381C383.201 459.774 382.476 457.314 382.291 454.999C382.123 452.636 382.379 450.474 383.059 448.515C383.738 446.555 384.792 444.821 386.221 443.314C387.683 441.79 389.387 440.556 391.333 439.612C392.686 438.956 393.979 438.472 395.213 438.159C396.48 437.83 397.605 437.671 398.589 437.683C399.59 437.646 400.424 437.771 401.093 438.058C401.779 438.296 402.234 438.646 402.458 439.108Z" fill="black"/>
<path d="M328.12 275.871C343.21 274.151 354.198 269.477 361.085 261.848C368.172 253.969 371.099 244.624 369.867 233.814C368.789 224.355 364.877 217.044 358.129 211.882C351.606 206.694 341.708 202.917 328.435 200.551L298.044 195.117C283.143 192.48 271.051 187.47 261.769 180.087C252.712 172.678 247.375 161.88 245.758 147.692C244.783 139.134 245.487 131.297 247.87 124.181C250.453 116.815 254.515 110.421 260.057 104.998C265.598 99.576 272.394 95.1514 280.445 91.7246C288.695 88.0469 298.112 85.6049 308.697 84.3987C317.705 83.3722 326.128 83.2109 333.965 83.9148C342.001 84.3679 348.988 85.6249 354.927 87.6858C361.064 89.4959 365.889 91.7977 369.401 94.5913C372.914 97.385 374.862 100.471 375.247 103.849C375.606 107.002 375.126 109.794 373.806 112.226C372.487 114.658 370.665 116.69 368.342 118.324C361.973 114.487 353.867 111.418 344.023 109.118C334.404 106.792 323.852 106.284 312.367 107.592C299.079 109.107 288.928 113.115 281.912 119.618C275.122 126.095 272.304 134.401 273.459 144.535C274.357 152.417 277.791 158.528 283.761 162.867C289.731 167.205 299.226 170.458 312.249 172.624L333.548 176.356C351.93 179.509 366.727 185.237 377.939 193.541C389.351 201.594 396.007 213.953 397.906 230.619C399.933 248.41 395.157 263.555 383.578 276.053C371.998 288.551 354.385 296.148 330.738 298.842C320.379 300.023 310.817 300.2 302.054 299.373C293.516 298.521 286.04 296.978 279.625 294.743C273.436 292.482 268.46 289.855 264.697 286.862C261.134 283.618 259.159 280.307 258.774 276.929C258.338 273.1 259.105 269.819 261.075 267.085C263.244 264.1 265.841 261.865 268.866 260.38C271.625 262.575 274.961 264.819 278.872 267.11C282.758 269.177 287.193 271.067 292.179 272.78C297.14 274.268 302.625 275.354 308.634 276.038C314.644 276.722 321.139 276.666 328.12 275.871Z" fill="black"/>
<path d="M429.687 450.327C431.014 449.544 432.029 448.775 432.732 448.02C433.449 447.214 433.922 446.573 434.152 446.097L430.1 439.228L424.589 443.309C423.04 444.436 422.048 445.532 421.612 446.598C421.158 447.632 421.266 448.717 421.937 449.854C422.645 451.054 423.652 451.716 424.96 451.839C426.248 451.93 427.824 451.426 429.687 450.327ZM417.819 430.317C420.566 428.696 423.109 428.026 425.446 428.308C427.783 428.589 429.734 430.056 431.299 432.709L437.922 443.936C438.332 444.631 438.507 445.252 438.446 445.798C438.398 446.295 438.199 446.859 437.849 447.492C437.352 448.381 436.564 449.356 435.488 450.417C434.461 451.491 433.142 452.503 431.532 453.453C428.563 455.205 425.913 455.98 423.581 455.781C421.281 455.562 419.479 454.348 418.175 452.137C416.946 450.053 416.702 448.089 417.446 446.246C418.17 444.371 419.689 442.581 422.004 440.875L428.339 436.243L427.557 434.917C426.625 433.338 425.471 432.465 424.096 432.297C422.72 432.13 421.226 432.521 419.616 433.471C418.289 434.254 417.154 435.179 416.209 436.247C415.264 437.316 414.473 438.357 413.837 439.371C413.454 439.299 413.068 439.186 412.679 439.032C412.322 438.86 412.041 438.6 411.836 438.252C411.575 437.81 411.471 437.382 411.525 436.967C411.578 436.553 411.767 436.079 412.092 435.547C412.684 434.602 413.467 433.693 414.442 432.82C415.398 431.915 416.524 431.081 417.819 430.317Z" fill="black"/>
<path d="M454 435.702C453.901 435.873 453.731 436.1 453.488 436.385C453.268 436.698 452.985 436.991 452.64 437.264C451.402 438.24 450.374 438.209 449.557 437.173L438.015 422.529C437.493 421.867 437.2 421.258 437.135 420.702C437.076 420.095 437.188 419.377 437.468 418.548C437.831 417.469 438.51 416.257 439.505 414.912C440.506 413.517 441.812 412.183 443.425 410.912C445.729 409.096 447.334 408.764 448.242 409.916C448.469 410.204 448.642 410.512 448.76 410.839C448.855 411.138 448.899 411.43 448.891 411.716C448.557 411.886 448.138 412.123 447.631 412.429C447.125 412.734 446.642 413.069 446.181 413.432C444.856 414.476 443.804 415.539 443.023 416.622C442.219 417.675 441.634 418.65 441.266 419.546L454 435.702Z" fill="black"/>
<path d="M479.495 385.384C478.191 384.148 476.88 383.613 475.561 383.779C474.243 383.944 472.991 384.652 471.806 385.904C470.167 387.634 469.317 389.758 469.256 392.275C469.939 392.62 470.587 393.082 471.2 393.662L483.897 405.69C483.825 405.873 483.676 406.137 483.452 406.48C483.28 406.822 483.055 407.139 482.777 407.432C481.693 408.577 480.672 408.695 479.714 407.787L468.413 397.084C467.109 395.848 465.798 395.313 464.479 395.478C463.161 395.644 461.897 396.365 460.686 397.643C459.879 398.495 459.243 399.433 458.778 400.457C458.339 401.455 458.04 402.384 457.881 403.244L472.815 417.389C472.743 417.573 472.607 417.823 472.408 418.14C472.235 418.482 471.998 418.812 471.695 419.132C470.611 420.276 469.59 420.395 468.632 419.487L455.015 406.589C454.483 406.085 454.144 405.563 454 405.022C453.854 404.429 453.86 403.677 454.017 402.765C454.245 401.618 454.716 400.347 455.431 398.953C456.144 397.507 457.03 396.225 458.089 395.107C459.324 393.803 460.621 392.834 461.978 392.2C463.309 391.542 464.559 391.261 465.729 391.359C465.773 390.087 466.086 388.743 466.67 387.327C467.228 385.885 468.137 384.499 469.398 383.168C471.44 381.011 473.586 379.786 475.834 379.492C478.056 379.172 480.232 380.021 482.361 382.038L494.979 393.99C494.907 394.174 494.758 394.437 494.534 394.78C494.362 395.122 494.137 395.44 493.86 395.732C492.775 396.877 491.754 396.996 490.796 396.088L479.495 385.384Z" fill="black"/>
<path d="M489.967 379.226C491.671 380.371 493.372 381.16 495.068 381.593C496.765 382.026 498.407 382.114 499.995 381.855C501.562 381.626 503.033 381.047 504.409 380.116C505.785 379.185 507.005 377.929 508.068 376.346C509.131 374.763 509.834 373.159 510.175 371.533C510.516 369.907 510.507 368.31 510.146 366.743C509.785 365.175 509.084 363.688 508.041 362.281C506.999 360.874 505.625 359.598 503.921 358.453C502.216 357.308 500.516 356.519 498.819 356.086C497.102 355.683 495.449 355.612 493.862 355.87C492.275 356.129 490.793 356.724 489.417 357.655C488.041 358.586 486.831 359.827 485.788 361.379C484.746 362.932 484.054 364.521 483.712 366.147C483.371 367.773 483.391 369.354 483.772 370.891C484.133 372.458 484.834 373.946 485.877 375.353C486.899 376.79 488.262 378.081 489.967 379.226ZM488.802 363.403C490.192 361.334 492.001 360.186 494.229 359.96C496.457 359.734 498.849 360.479 501.406 362.197C503.993 363.935 505.614 365.863 506.267 367.98C506.87 370.108 506.466 372.221 505.055 374.322C503.644 376.422 501.835 377.57 499.628 377.765C497.42 377.961 495.038 377.2 492.481 375.483C489.925 373.765 488.33 371.832 487.697 369.684C487.043 367.567 487.411 365.473 488.802 363.403Z" fill="black"/>
<path d="M509.777 333.806C507.948 332.872 506.343 332.71 504.96 333.322C503.594 333.9 502.469 335.055 501.585 336.786C500.918 338.092 500.489 339.335 500.299 340.514C500.108 341.693 500.042 342.75 500.1 343.685L518.419 353.041C518.401 353.237 518.341 353.516 518.239 353.876C518.171 354.252 518.036 354.636 517.836 355.028C517.119 356.432 516.173 356.834 514.997 356.234L498.294 347.704C497.608 347.353 497.12 346.939 496.829 346.461C496.522 345.934 496.331 345.219 496.257 344.316C496.168 343.201 496.27 341.832 496.562 340.211C496.855 338.59 497.452 336.898 498.352 335.135C499.87 332.163 501.732 330.17 503.938 329.156C506.16 328.109 508.709 328.319 511.582 329.787L526.424 337.367C526.406 337.563 526.338 337.858 526.219 338.25C526.151 338.627 526.024 338.995 525.841 339.354C525.124 340.758 524.178 341.16 523.002 340.56L509.777 333.806Z" fill="black"/>
</g>
<defs>
<clipPath id="clip0">
<rect width="605" height="560" fill="white"/>
</clipPath>
</defs>
</svg>
