<svg width="483" height="482" viewBox="0 0 483 482" fill="none" xmlns="http://www.w3.org/2000/svg">
<g clip-path="url(#clip0)">
<rect width="483" height="482" fill="white"/>
<circle cx="241.666" cy="236" r="223" fill="white" stroke="black" stroke-width="4"/>
<rect x="45.36" y="378.122" width="465.507" height="184.891" transform="rotate(-20.0967 45.36 378.122)" fill="white"/>
<g style="mix-blend-mode:darken">
<circle cx="241.666" cy="236" r="223" fill="white"/>
<circle cx="241.666" cy="236" r="223" stroke="black" stroke-width="4" stroke-dasharray="10 10"/>
</g>
<rect x="70.9084" y="438.098" width="449.176" height="122.277" rx="61.1384" transform="rotate(-21.2597 70.9084 438.098)" fill="white"/>
<path d="M262.663 216.191C262.977 218.974 262.351 221.459 260.787 223.648C259.421 225.815 257.701 227.518 255.627 228.758C250.056 225.764 243.614 223.068 236.299 220.672C228.985 218.277 219.763 217.706 208.633 218.96C199.491 219.991 191.224 222.533 183.832 226.586C176.439 230.64 170.208 236.072 165.139 242.883C160.07 249.693 156.373 257.959 154.047 267.681C151.92 277.38 151.54 288.292 152.906 300.415C154.295 312.737 157.095 323.29 161.305 332.073C165.516 340.857 170.75 348.016 177.009 353.549C183.467 359.061 190.85 362.958 199.159 365.242C207.444 367.327 216.456 367.821 226.195 366.723C236.529 365.558 245.316 363.159 252.554 359.525C259.969 355.671 266.036 351.465 270.755 346.907C272.832 347.478 274.889 348.756 276.924 350.741C278.936 352.526 280.099 354.811 280.413 357.593C280.884 361.766 278.924 365.811 274.535 369.728C270.323 373.423 264.376 376.911 256.695 380.192C249.037 383.671 239.046 386.106 226.724 387.495C214.204 388.906 202.353 388.229 191.173 385.464C179.993 382.699 169.992 377.889 161.168 371.034C152.521 363.958 145.251 354.815 139.359 343.604C133.466 332.394 129.635 318.938 127.865 303.237C126.095 287.537 126.835 273.566 130.084 261.325C133.51 248.863 138.75 238.209 145.803 229.363C152.857 220.518 161.426 213.514 171.512 208.352C181.796 203.167 192.801 199.914 204.526 198.592C212.675 197.674 220.206 197.529 227.12 198.159C234.233 198.766 240.308 199.993 245.347 201.84C250.562 203.467 254.629 205.625 257.549 208.315C260.645 210.783 262.35 213.409 262.663 216.191Z" fill="#050505"/>
<path d="M141.118 446.051C143.487 446.702 145.419 446.662 146.912 445.931C148.451 445.175 149.453 443.948 149.919 442.251C150.327 440.766 150.18 439.433 149.478 438.252C148.811 437.08 147.553 435.916 145.703 434.762L141.467 432.115C139.389 430.822 137.875 429.341 136.927 427.674C136.013 426.016 135.862 424.073 136.474 421.846C136.843 420.502 137.421 419.368 138.207 418.443C139.039 417.493 140.034 416.778 141.193 416.298C142.351 415.817 143.638 415.562 145.053 415.533C146.513 415.478 148.074 415.678 149.736 416.135C151.15 416.523 152.424 417.006 153.558 417.584C154.738 418.136 155.711 418.746 156.478 419.413C157.291 420.054 157.876 420.691 158.235 421.322C158.595 421.953 158.701 422.533 158.555 423.064C158.42 423.559 158.179 423.949 157.835 424.234C157.49 424.52 157.094 424.715 156.647 424.821C155.922 423.861 154.89 422.912 153.55 421.974C152.246 421.045 150.693 420.333 148.89 419.838C146.804 419.265 145.038 419.255 143.593 419.809C142.184 420.372 141.26 421.449 140.823 423.041C140.483 424.278 140.631 425.402 141.266 426.413C141.9 427.424 143.13 428.484 144.955 429.594L147.928 431.437C150.497 433.018 152.374 434.769 153.557 436.691C154.785 438.588 155.04 440.844 154.321 443.461C153.554 446.254 151.925 448.24 149.433 449.419C146.942 450.597 143.84 450.677 140.128 449.657C138.501 449.21 137.055 448.661 135.789 448.009C134.559 447.367 133.529 446.685 132.701 445.963C131.908 445.251 131.319 444.557 130.935 443.881C130.595 443.179 130.498 442.563 130.644 442.033C130.809 441.431 131.122 440.985 131.582 440.693C132.087 440.376 132.612 440.197 133.156 440.156C133.438 440.652 133.803 441.189 134.252 441.769C134.711 442.313 135.263 442.864 135.909 443.422C136.564 443.944 137.322 444.437 138.183 444.902C139.044 445.367 140.022 445.75 141.118 446.051Z" fill="black"/>
<path d="M186.064 449.83C185.743 451.858 185.164 453.642 184.326 455.18C183.489 456.718 182.436 457.98 181.166 458.967C179.932 459.96 178.506 460.644 176.887 461.019C175.269 461.394 173.518 461.432 171.635 461.134C169.752 460.836 168.098 460.259 166.675 459.403C165.251 458.547 164.087 457.453 163.184 456.122C162.281 454.791 161.669 453.265 161.347 451.544C161.026 449.822 161.025 447.948 161.346 445.92C161.667 443.892 162.246 442.108 163.083 440.57C163.957 439.038 165.029 437.778 166.298 436.791C167.568 435.804 169.012 435.123 170.631 434.748C172.249 434.373 173.982 434.332 175.829 434.624C177.676 434.916 179.312 435.491 180.735 436.347C182.159 437.203 183.304 438.294 184.171 439.619C185.074 440.95 185.687 442.476 186.008 444.197C186.366 445.925 186.385 447.802 186.064 449.83ZM175.262 438.21C172.799 437.82 170.727 438.364 169.045 439.843C167.364 441.322 166.282 443.582 165.801 446.624C165.314 449.703 165.624 452.202 166.731 454.122C167.879 456.011 169.703 457.154 172.202 457.549C174.701 457.944 176.773 457.4 178.419 455.915C180.064 454.431 181.128 452.168 181.609 449.126C182.09 446.083 181.76 443.599 180.616 441.674C179.509 439.754 177.725 438.599 175.262 438.21Z" fill="black"/>
<path d="M214.303 453.178C214.644 451.153 214.315 449.573 213.317 448.438C212.354 447.309 210.915 446.584 208.998 446.261C207.552 446.017 206.238 445.982 205.056 446.155C203.875 446.327 202.846 446.582 201.972 446.918L198.555 467.202C198.362 467.244 198.079 467.271 197.705 467.282C197.325 467.33 196.918 467.317 196.484 467.244C194.929 466.982 194.262 466.2 194.481 464.898L197.596 446.404C197.724 445.645 197.972 445.054 198.341 444.633C198.751 444.182 199.376 443.785 200.215 443.443C201.252 443.022 202.588 442.708 204.222 442.5C205.856 442.292 207.649 442.352 209.601 442.681C212.892 443.236 215.352 444.412 216.983 446.211C218.649 448.017 219.215 450.51 218.679 453.692L215.91 470.125C215.717 470.167 215.416 470.191 215.006 470.196C214.626 470.244 214.237 470.234 213.84 470.167C212.285 469.905 211.617 469.123 211.837 467.822L214.303 453.178Z" fill="black"/>
<path d="M235.066 471.318C234.878 471.378 234.599 471.432 234.228 471.48C233.855 471.564 233.448 471.59 233.009 471.559C231.437 471.449 230.697 470.735 230.789 469.418L232.444 445.881C232.632 445.821 232.912 445.767 233.283 445.72C233.693 445.638 234.117 445.613 234.556 445.644C236.092 445.752 236.813 446.483 236.718 447.836L235.066 471.318ZM232.357 437.715C232.411 436.947 232.712 436.325 233.26 435.849C233.847 435.339 234.561 435.113 235.403 435.172C236.244 435.232 236.901 435.554 237.375 436.138C237.851 436.686 238.062 437.344 238.008 438.112C237.954 438.881 237.652 439.521 237.101 440.034C236.553 440.51 235.858 440.718 235.017 440.659C234.176 440.6 233.499 440.295 232.986 439.744C232.513 439.16 232.303 438.483 232.357 437.715Z" fill="black"/>
<path d="M259.877 467.534C261.413 467.421 262.664 467.182 263.629 466.818C264.629 466.413 265.338 466.049 265.755 465.724L265.172 457.771L258.422 458.982C256.534 459.305 255.159 459.847 254.295 460.609C253.429 461.334 253.045 462.355 253.141 463.671C253.243 465.061 253.852 466.101 254.969 466.791C256.083 467.444 257.719 467.692 259.877 467.534ZM258.12 444.335C261.302 444.102 263.877 444.63 265.847 445.919C267.817 447.209 268.914 449.389 269.139 452.461L270.093 465.461C270.152 466.266 270.033 466.899 269.736 467.362C269.473 467.786 269.044 468.204 268.449 468.615C267.609 469.191 266.471 469.716 265.035 470.189C263.638 470.696 262.007 471.017 260.142 471.154C256.705 471.406 253.986 470.925 251.985 469.712C250.021 468.496 248.945 466.608 248.757 464.048C248.58 461.634 249.234 459.766 250.717 458.444C252.199 457.086 254.355 456.156 257.186 455.654L264.918 454.315L264.806 452.779C264.672 450.95 264.025 449.656 262.867 448.895C261.708 448.135 260.196 447.823 258.331 447.96C256.795 448.072 255.367 448.397 254.046 448.936C252.725 449.474 251.555 450.056 250.534 450.682C250.223 450.447 249.927 450.175 249.647 449.865C249.404 449.552 249.267 449.194 249.238 448.792C249.2 448.28 249.297 447.85 249.529 447.502C249.761 447.154 250.14 446.814 250.667 446.481C251.617 445.897 252.723 445.43 253.984 445.08C255.242 444.693 256.621 444.445 258.12 444.335Z" fill="black"/>
<path d="M339.124 420.108C339.348 420.57 339.392 421.038 339.255 421.511C339.151 421.969 338.957 422.369 338.674 422.71C337.528 422.532 336.25 422.459 334.84 422.491C333.429 422.523 331.8 422.987 329.952 423.883C328.434 424.619 327.16 425.563 326.13 426.715C325.099 427.866 324.353 429.186 323.892 430.672C323.431 432.159 323.296 433.814 323.488 435.636C323.712 437.443 324.312 439.352 325.287 441.365C326.279 443.411 327.407 445.064 328.671 446.326C329.935 447.588 331.277 448.506 332.696 449.081C334.149 449.639 335.663 449.863 337.239 449.751C338.799 449.606 340.387 449.141 342.003 448.357C343.719 447.525 345.092 446.574 346.121 445.505C347.168 444.386 347.96 443.289 348.498 442.213C348.892 442.185 349.326 442.28 349.798 442.499C350.255 442.685 350.596 443.009 350.82 443.471C351.156 444.164 351.064 444.982 350.544 445.927C350.041 446.823 349.226 447.789 348.098 448.825C346.986 449.894 345.408 450.924 343.362 451.916C341.284 452.924 339.194 453.53 337.092 453.734C334.991 453.938 332.968 453.717 331.024 453.07C329.098 452.374 327.283 451.237 325.58 449.658C323.878 448.08 322.394 445.987 321.13 443.381C319.867 440.774 319.142 438.314 318.957 435.999C318.789 433.636 319.045 431.474 319.724 429.515C320.404 427.555 321.458 425.821 322.887 424.314C324.349 422.79 326.053 421.556 327.999 420.612C329.352 419.956 330.645 419.472 331.879 419.159C333.146 418.83 334.271 418.671 335.255 418.683C336.256 418.646 337.09 418.771 337.759 419.058C338.445 419.296 338.9 419.646 339.124 420.108Z" fill="black"/>
<path d="M264.786 256.871C279.875 255.151 290.864 250.477 297.751 242.848C304.838 234.969 307.765 225.624 306.533 214.814C305.455 205.355 301.542 198.044 294.795 192.882C288.272 187.694 278.374 183.917 265.101 181.551L234.71 176.117C219.809 173.48 207.717 168.47 198.435 161.087C189.378 153.678 184.041 142.88 182.424 128.692C181.449 120.134 182.153 112.297 184.536 105.181C187.119 97.815 191.181 91.4206 196.723 85.9983C202.264 80.576 209.06 76.1514 217.111 72.7246C225.361 69.0469 234.778 66.6049 245.363 65.3987C254.371 64.3722 262.794 64.2109 270.631 64.9148C278.667 65.3679 285.654 66.6249 291.593 68.6858C297.73 70.4959 302.555 72.7977 306.067 75.5913C309.58 78.385 311.528 81.4709 311.913 84.849C312.272 88.002 311.792 90.7943 310.472 93.226C309.153 95.6578 307.331 97.6904 305.008 99.3239C298.639 95.487 290.533 92.4184 280.689 90.1181C271.07 87.7922 260.518 87.2836 249.033 88.5924C235.745 90.1065 225.594 94.115 218.578 100.618C211.788 107.095 208.97 115.401 210.125 125.535C211.023 133.417 214.457 139.528 220.427 143.867C226.396 148.205 235.892 151.458 248.915 153.624L270.214 157.356C288.596 160.509 303.393 166.237 314.605 174.541C326.017 182.594 332.673 194.953 334.572 211.619C336.599 229.41 331.823 244.555 320.244 257.053C308.664 269.551 291.051 277.148 267.404 279.842C257.044 281.023 247.483 281.2 238.72 280.373C230.182 279.521 222.706 277.978 216.291 275.743C210.102 273.482 205.126 270.855 201.363 267.862C197.8 264.618 195.825 261.307 195.44 257.929C195.004 254.1 195.771 250.819 197.741 248.085C199.91 245.1 202.507 242.865 205.532 241.38C208.291 243.575 211.627 245.819 215.538 248.11C219.424 250.177 223.859 252.067 228.845 253.78C233.806 255.268 239.291 256.354 245.3 257.038C251.31 257.722 257.805 257.666 264.786 256.871Z" fill="black"/>
<path d="M366.353 431.327C367.679 430.544 368.695 429.775 369.398 429.02C370.115 428.214 370.588 427.573 370.818 427.097L366.766 420.228L361.255 424.309C359.706 425.436 358.714 426.532 358.278 427.598C357.824 428.632 357.932 429.717 358.603 430.854C359.311 432.054 360.318 432.716 361.626 432.839C362.914 432.93 364.49 432.426 366.353 431.327ZM354.485 411.317C357.232 409.696 359.775 409.026 362.112 409.308C364.449 409.589 366.4 411.056 367.965 413.709L374.588 424.936C374.998 425.631 375.173 426.252 375.112 426.798C375.064 427.295 374.865 427.859 374.515 428.492C374.017 429.381 373.23 430.356 372.154 431.417C371.127 432.491 369.808 433.503 368.198 434.453C365.229 436.205 362.579 436.98 360.247 436.781C357.947 436.562 356.145 435.348 354.841 433.137C353.612 431.053 353.368 429.089 354.112 427.246C354.836 425.371 356.355 423.581 358.67 421.875L365.005 417.243L364.223 415.917C363.291 414.338 362.137 413.465 360.761 413.297C359.386 413.13 357.892 413.521 356.282 414.471C354.955 415.254 353.82 416.179 352.875 417.247C351.93 418.316 351.139 419.357 350.503 420.371C350.12 420.299 349.734 420.186 349.345 420.032C348.988 419.86 348.707 419.6 348.502 419.252C348.241 418.81 348.137 418.382 348.191 417.967C348.244 417.553 348.433 417.079 348.758 416.547C349.35 415.602 350.133 414.693 351.108 413.82C352.064 412.915 353.19 412.081 354.485 411.317Z" fill="black"/>
<path d="M390.666 416.702C390.567 416.873 390.397 417.1 390.154 417.385C389.934 417.698 389.651 417.991 389.306 418.264C388.068 419.24 387.04 419.209 386.223 418.173L374.681 403.529C374.159 402.867 373.866 402.258 373.801 401.702C373.742 401.095 373.853 400.377 374.134 399.548C374.497 398.469 375.176 397.257 376.171 395.912C377.171 394.517 378.478 393.183 380.091 391.912C382.395 390.096 384 389.764 384.908 390.916C385.135 391.204 385.308 391.512 385.426 391.839C385.521 392.138 385.564 392.43 385.557 392.716C385.223 392.886 384.804 393.123 384.297 393.429C383.791 393.734 383.308 394.069 382.847 394.432C381.522 395.476 380.47 396.539 379.689 397.622C378.885 398.675 378.3 399.65 377.932 400.546L390.666 416.702Z" fill="black"/>
<path d="M416.161 366.384C414.857 365.148 413.546 364.613 412.227 364.779C410.909 364.944 409.657 365.652 408.472 366.904C406.833 368.634 405.983 370.758 405.922 373.275C406.605 373.62 407.253 374.082 407.865 374.662L420.563 386.69C420.491 386.873 420.342 387.137 420.118 387.48C419.946 387.822 419.721 388.139 419.443 388.432C418.359 389.577 417.338 389.695 416.38 388.787L405.079 378.084C403.775 376.848 402.464 376.313 401.145 376.478C399.827 376.644 398.563 377.365 397.352 378.643C396.545 379.495 395.909 380.433 395.444 381.457C395.005 382.455 394.706 383.384 394.547 384.244L409.481 398.389C409.408 398.573 409.273 398.823 409.074 399.14C408.901 399.482 408.664 399.812 408.361 400.132C407.277 401.276 406.256 401.395 405.297 400.487L391.681 387.589C391.149 387.085 390.81 386.563 390.666 386.022C390.52 385.429 390.526 384.677 390.683 383.765C390.911 382.618 391.382 381.347 392.097 379.953C392.81 378.507 393.696 377.225 394.755 376.107C395.99 374.803 397.287 373.834 398.644 373.2C399.975 372.542 401.225 372.261 402.395 372.359C402.439 371.087 402.752 369.743 403.336 368.327C403.894 366.885 404.803 365.499 406.064 364.168C408.106 362.011 410.252 360.786 412.5 360.492C414.722 360.172 416.898 361.021 419.027 363.038L431.645 374.99C431.573 375.174 431.424 375.437 431.2 375.78C431.028 376.122 430.803 376.44 430.526 376.732C429.441 377.877 428.42 377.996 427.462 377.088L416.161 366.384Z" fill="black"/>
<path d="M426.632 360.226C428.337 361.371 430.038 362.16 431.734 362.593C433.431 363.026 435.073 363.114 436.661 362.855C438.228 362.626 439.699 362.047 441.075 361.116C442.451 360.185 443.671 358.929 444.734 357.346C445.797 355.763 446.5 354.159 446.841 352.533C447.182 350.907 447.173 349.31 446.812 347.743C446.451 346.175 445.75 344.688 444.707 343.281C443.665 341.874 442.291 340.598 440.587 339.453C438.882 338.308 437.182 337.519 435.485 337.086C433.768 336.683 432.115 336.612 430.528 336.87C428.941 337.129 427.459 337.724 426.083 338.655C424.707 339.586 423.497 340.827 422.454 342.379C421.412 343.932 420.72 345.521 420.378 347.147C420.037 348.773 420.057 350.354 420.438 351.891C420.799 353.458 421.5 354.946 422.543 356.353C423.565 357.79 424.928 359.081 426.632 360.226ZM425.468 344.403C426.858 342.334 428.667 341.186 430.895 340.96C433.123 340.734 435.515 341.479 438.072 343.197C440.659 344.935 442.279 346.863 442.933 348.98C443.536 351.108 443.132 353.221 441.721 355.322C440.31 357.422 438.501 358.57 436.294 358.765C434.086 358.961 431.704 358.2 429.147 356.483C426.591 354.765 424.996 352.832 424.363 350.684C423.709 348.567 424.077 346.473 425.468 344.403Z" fill="black"/>
<path d="M446.443 314.806C444.614 313.872 443.009 313.71 441.626 314.322C440.26 314.9 439.135 316.055 438.251 317.786C437.584 319.092 437.155 320.335 436.965 321.514C436.774 322.693 436.708 323.75 436.765 324.685L455.085 334.041C455.067 334.237 455.007 334.516 454.905 334.876C454.837 335.252 454.702 335.636 454.502 336.028C453.785 337.432 452.839 337.834 451.663 337.234L434.96 328.704C434.274 328.353 433.786 327.939 433.495 327.461C433.188 326.934 432.997 326.219 432.923 325.316C432.834 324.201 432.936 322.832 433.228 321.211C433.521 319.59 434.118 317.898 435.018 316.135C436.536 313.163 438.398 311.17 440.604 310.156C442.826 309.109 445.375 309.319 448.248 310.787L463.09 318.367C463.072 318.563 463.003 318.858 462.885 319.25C462.817 319.627 462.69 319.995 462.507 320.354C461.79 321.758 460.843 322.16 459.668 321.56L446.443 314.806Z" fill="black"/>
</g>
<defs>
<clipPath id="clip0">
<rect width="483" height="482" fill="white"/>
</clipPath>
</defs>
</svg>
